<svg width="3840" height="2160" viewBox="0 0 3840 2160" fill="none" xmlns="http://www.w3.org/2000/svg">
<rect width="3840" height="2160" fill="#0A233F"/>
<mask id="mask0_2656_203" style="mask-type:alpha" maskUnits="userSpaceOnUse" x="0" y="0" width="3840" height="2160">
<rect width="3840" height="2160" fill="#0A233F"/>
</mask>
<g mask="url(#mask0_2656_203)">
<path d="M3731.75 1551.73C3731.75 2097.44 3298.18 2539.19 2764.12 2539.19C2230.07 2539.19 1796.5 2097.44 1796.5 1551.73C1796.5 1006.02 2230.07 564.268 2764.12 564.268C3298.18 564.268 3731.75 1006.02 3731.75 1551.73Z" stroke="#58A738" stroke-width="37"/>
<path d="M3972.37 1251.39C3972.37 1631.68 3670.26 1939.32 3298.36 1939.32C2926.47 1939.32 2624.36 1631.68 2624.36 1251.39C2624.36 871.108 2926.47 563.459 3298.36 563.459C3670.26 563.459 3972.37 871.108 3972.37 1251.39Z" stroke="#FDB813" stroke-width="37"/>
<path d="M3100.19 1314.37C3100.19 1578.72 2890.21 1792.39 2631.96 1792.39C2373.71 1792.39 2163.73 1578.72 2163.73 1314.37C2163.73 1050.01 2373.71 836.346 2631.96 836.346C2890.21 836.346 3100.19 1050.01 3100.19 1314.37Z" stroke="#0072BC" stroke-width="37"/>
<path d="M3384.32 1370.08C3384.32 1572.01 3223.95 1735.07 3026.89 1735.07C2829.83 1735.07 2669.46 1572.01 2669.46 1370.08C2669.46 1168.15 2829.83 1005.09 3026.89 1005.09C3223.95 1005.09 3384.32 1168.15 3384.32 1370.08Z" stroke="#E470AB" stroke-width="37"/>
<path d="M3934.35 1314.77C3934.35 1603.43 3705.06 1836.8 3422.99 1836.8C3140.92 1836.8 2911.62 1603.43 2911.62 1314.77C2911.62 1026.12 3140.92 792.753 3422.99 792.753C3705.06 792.753 3934.35 1026.12 3934.35 1314.77Z" stroke="#FDB813" stroke-width="37"/>
<path d="M4094.21 1512.18C4094.21 1994.57 3710.96 2385 3238.97 2385C2766.98 2385 2383.73 1994.57 2383.73 1512.18C2383.73 1029.79 2766.98 639.364 3238.97 639.364C3710.96 639.364 4094.21 1029.79 4094.21 1512.18Z" stroke="#E470AB" stroke-width="37"/>
<path d="M4914.94 1314.37C4914.94 1662.88 4604.88 1948.21 4218.77 1948.21C3832.67 1948.21 3522.61 1662.88 3522.61 1314.37C3522.61 965.863 3832.67 680.531 4218.77 680.531C4604.88 680.531 4914.94 965.863 4914.94 1314.37Z" stroke="#0072BC" stroke-width="37"/>
<path d="M2965.64 1551.72C2965.64 1841.78 2739.07 2075.76 2461 2075.76C2182.93 2075.76 1956.36 1841.78 1956.36 1551.72C1956.36 1261.66 2182.93 1027.68 2461 1027.68C2739.07 1027.68 2965.64 1261.66 2965.64 1551.72Z" stroke="#58A738" stroke-width="37"/>
</g>
</svg>
