<svg width="349" height="349" viewBox="0 0 349 349" fill="none" xmlns="http://www.w3.org/2000/svg">
<path d="M78.9375 270.062L209.25 209.25L270.062 78.9375L139.75 139.75L78.9375 270.062ZM174.5 191.875C169.577 191.875 165.451 190.21 162.12 186.88C158.79 183.549 157.125 179.423 157.125 174.5C157.125 169.577 158.79 165.451 162.12 162.12C165.451 158.79 169.577 157.125 174.5 157.125C179.423 157.125 183.549 158.79 186.88 162.12C190.21 165.451 191.875 169.577 191.875 174.5C191.875 179.423 190.21 183.549 186.88 186.88C183.549 190.21 179.423 191.875 174.5 191.875ZM174.5 348.25C150.465 348.25 127.877 343.689 106.737 334.567C85.5979 325.445 67.2094 313.066 51.5719 297.428C35.9344 281.791 23.5547 263.402 14.4328 242.262C5.31094 221.123 0.75 198.535 0.75 174.5C0.75 150.465 5.31094 127.877 14.4328 106.737C23.5547 85.5979 35.9344 67.2094 51.5719 51.5719C67.2094 35.9344 85.5979 23.5547 106.737 14.4328C127.877 5.31094 150.465 0.75 174.5 0.75C198.535 0.75 221.123 5.31094 242.262 14.4328C263.402 23.5547 281.791 35.9344 297.428 51.5719C313.066 67.2094 325.445 85.5979 334.567 106.737C343.689 127.877 348.25 150.465 348.25 174.5C348.25 198.535 343.689 221.123 334.567 242.262C325.445 263.402 313.066 281.791 297.428 297.428C281.791 313.066 263.402 325.445 242.262 334.567C221.123 343.689 198.535 348.25 174.5 348.25ZM174.5 313.5C213.304 313.5 246.172 300.034 273.103 273.103C300.034 246.172 313.5 213.304 313.5 174.5C313.5 135.696 300.034 102.828 273.103 75.8969C246.172 48.9656 213.304 35.5 174.5 35.5C135.696 35.5 102.828 48.9656 75.8969 75.8969C48.9656 102.828 35.5 135.696 35.5 174.5C35.5 213.304 48.9656 246.172 75.8969 273.103C102.828 300.034 135.696 313.5 174.5 313.5Z" fill="#71BED4"/>
</svg>
