<svg width="423" height="415" viewBox="0 0 423 415" fill="none" xmlns="http://www.w3.org/2000/svg">
<path d="M110.21 13.2006C111.53 12.6326 113 13.6007 113 15.0378V66C113 67.1046 112.105 68 111 68H4.42425C2.70324 68 1.78588 65.9707 2.92285 64.6787L10.1563 56.4592C10.3522 56.2366 10.595 56.0604 10.8673 55.9433L110.21 13.2006Z" fill="#42A7C5"/>
<path d="M123 5.01815C123 2.44901 125.387 0.546025 127.892 1.11883L387.962 60.6007C392.607 61.6631 391.835 68.5 387.07 68.5H127C124.791 68.5 123 66.7091 123 64.5V5.01815Z" fill="#42A7C5"/>
<rect x="267" y="77" width="46" height="18" rx="9" fill="#42A7C5"/>
<rect x="280" y="86" width="19" height="112" fill="#42A7C5"/>
<rect width="127" height="43" rx="3" transform="matrix(1 0 0 -1 226 241)" fill="#42A7C5"/>
<rect width="40" height="338" rx="9" transform="matrix(1 0 0 -1 98 415)" fill="#42A7C5"/>
</svg>
