<svg width="1434" height="489" viewBox="0 0 1434 489" fill="none" xmlns="http://www.w3.org/2000/svg">
<path d="M940.15 353H889.55V194.3H940.15C975.34 194.3 997.65 214.08 997.65 265.37V281.93C997.65 333.22 975.34 353 940.15 353ZM940.15 335.06C964.53 335.06 977.87 321.26 977.87 281.93V265.37C977.87 226.04 964.53 212.24 940.15 212.24H909.33V335.06H940.15ZM1116.44 287.68V302.86C1116.44 332.76 1101.72 354.84 1068.6 354.84C1038.01 354.84 1020.76 334.6 1020.76 302.86V287.68C1020.76 255.02 1038.47 236.16 1068.6 236.16C1098.96 236.16 1116.44 254.79 1116.44 287.68ZM1068.6 338.28C1088.15 338.28 1098.04 322.41 1098.04 302.86V287.68C1098.04 265.83 1087.46 252.72 1068.6 252.72C1049.74 252.72 1039.16 266.06 1039.16 287.68V302.86C1039.16 322.64 1047.44 338.28 1068.6 338.28ZM1212.37 325.4L1226.63 335.52C1219.5 348.86 1205.47 354.84 1186.84 354.84C1155.33 354.84 1137.16 334.6 1137.16 302.86V287.68C1137.16 255.02 1155.79 236.16 1186.84 236.16C1204.09 236.16 1218.35 242.37 1226.63 254.1L1212.14 264.22C1207.08 256.86 1197.42 252.72 1186.84 252.72C1167.06 252.72 1155.56 266.06 1155.56 287.68V302.86C1155.56 322.64 1164.76 338.28 1186.84 338.28C1197.65 338.28 1207.54 334.6 1212.37 325.4ZM1325.84 255.25L1312.04 264.91C1305.83 256.86 1299.39 253.18 1283.52 253.18C1269.95 253.18 1261.21 258.47 1261.21 268.59C1261.21 281.7 1272.71 285.61 1287.89 286.76C1309.51 288.37 1329.29 294.58 1329.29 321.03C1329.29 341.04 1315.72 354.84 1286.05 354.84C1262.59 354.84 1250.4 347.71 1241.66 335.75L1255.23 326.09C1261.44 334.37 1269.72 337.82 1286.28 337.82C1301.69 337.82 1310.89 331.84 1310.89 321.49C1310.89 309.07 1303.53 304.7 1281.22 303.09C1261.9 301.71 1242.81 293.89 1242.81 268.82C1242.81 249.73 1256.61 236.16 1283.98 236.16C1302.61 236.16 1316.87 240.99 1325.84 255.25Z" fill="white"/>
<path d="M733.144 99.304H720.28C719.032 93.064 715.384 89.224 708.856 89.224C701.08 89.224 696.952 94.504 696.952 107.176V116.584C696.952 128.872 701.08 134.536 708.856 134.536C715.576 134.536 718.84 131.176 720.28 124.456H733.048C730.84 139.336 722.488 145.864 708.856 145.864C693.976 145.864 683.512 136.84 683.512 116.584V107.176C683.512 86.728 693.976 77.896 708.856 77.896C722.008 77.896 730.936 84.808 733.144 99.304ZM738.612 130.792C738.612 120.616 746.292 116.2 756.372 116.2H765.876V113.416C765.876 108.04 764.244 106.312 757.332 106.312C752.628 106.312 750.324 106.984 748.308 110.152L739.668 104.104C743.22 98.248 748.596 96.136 758.484 96.136C770.868 96.136 777.876 99.784 777.876 113.512V145H765.876V140.776C763.956 144.04 761.076 145.864 755.508 145.864C745.524 145.864 738.612 140.584 738.612 130.792ZM765.876 127.048V125.224H757.812C752.82 125.224 750.612 126.856 750.612 130.6C750.612 134.248 753.396 135.976 757.62 135.976C763.188 135.976 765.876 133.576 765.876 127.048ZM785.108 107.368V97H791.252V86.44H803.444V97H812.852V107.368H803.444V127.432C803.444 132.232 804.404 134.248 808.916 134.248H812.852V145H807.668C796.052 145 791.252 141.736 791.252 129.352V107.368H785.108ZM849.433 131.368L858.553 137.704C855.193 143.56 849.625 145.864 840.985 145.864C826.585 145.864 819.673 136.552 819.673 124.168V117.64C819.673 103.144 826.969 96.136 839.449 96.136C852.985 96.136 859.225 104.008 859.225 118.6V124.072H831.865C831.961 130.696 834.073 135.496 840.889 135.496C845.977 135.496 847.609 133.96 849.433 131.368ZM839.545 106.504C834.649 106.504 832.345 109.864 831.865 115.336H846.937C846.649 109.096 844.153 106.504 839.545 106.504ZM869.048 145V97H881.048V101.032C882.872 98.632 886.712 96.136 892.088 96.136C901.784 96.136 909.656 100.744 909.656 114.952V145H897.464V116.872C897.464 109.384 894.776 106.696 889.784 106.696C884.12 106.696 881.336 110.44 881.336 116.776V145H869.048ZM918.14 130.792C918.14 120.616 925.82 116.2 935.9 116.2H945.404V113.416C945.404 108.04 943.772 106.312 936.86 106.312C932.156 106.312 929.852 106.984 927.836 110.152L919.196 104.104C922.748 98.248 928.124 96.136 938.012 96.136C950.396 96.136 957.404 99.784 957.404 113.512V145H945.404V140.776C943.484 144.04 940.604 145.864 935.036 145.864C925.052 145.864 918.14 140.584 918.14 130.792ZM945.404 127.048V125.224H937.34C932.348 125.224 930.14 126.856 930.14 130.6C930.14 134.248 932.924 135.976 937.148 135.976C942.716 135.976 945.404 133.576 945.404 127.048ZM1003.61 103.624L994.203 110.344C992.955 108.52 991.227 106.696 988.155 106.696C983.547 106.696 980.475 110.056 980.475 116.776V145H968.187V97H980.187V101.032C981.819 98.632 984.987 96.136 990.651 96.136C996.411 96.136 1000.73 98.632 1003.61 103.624ZM1004.11 97H1016.97L1027.63 127.72L1037.23 97H1049.61L1032.81 147.208C1028.49 160.072 1024.27 163.24 1010.83 163.24V152.296C1017.45 152.296 1020.04 151.24 1022.06 145.672L1004.11 97Z" fill="white"/>
<path d="M727.16 193.611C728.48 193.043 729.95 194.011 729.95 195.448V215.66C729.95 216.764 729.055 217.66 727.95 217.66H683.424C681.703 217.66 680.786 215.631 681.923 214.339L683.416 212.642C683.612 212.419 683.855 212.243 684.127 212.126L727.16 193.611Z" fill="white"/>
<path d="M734.461 192.018C734.461 189.449 736.848 187.546 739.353 188.119L834.964 209.986C839.609 211.049 838.837 217.886 834.072 217.886H738.461C736.252 217.886 734.461 216.095 734.461 213.886V192.018Z" fill="white"/>
<rect x="799.387" y="221.719" width="20.7408" height="8.11598" rx="4.05799" fill="white"/>
<rect x="805.25" y="225.775" width="8.56686" height="50.4994" fill="white"/>
<rect width="57.2627" height="19.3882" rx="3" transform="matrix(1 0 0 -1 780.902 295.664)" fill="white"/>
<rect width="18.0355" height="152.4" rx="9" transform="matrix(1 0 0 -1 723.188 374.119)" fill="white"/>
<path d="M82.0946 317.588C94.2971 317.588 104.189 307.704 104.189 295.512C104.189 283.319 94.2971 273.436 82.0946 273.436C69.8921 273.436 60 283.319 60 295.512C60 307.704 69.8921 317.588 82.0946 317.588Z" fill="#42A7C5"/>
<path d="M82.0946 317.588C94.2971 317.588 104.189 307.704 104.189 295.512C104.189 283.319 94.2971 273.436 82.0946 273.436C69.8921 273.436 60 283.319 60 295.512C60 307.704 69.8921 317.588 82.0946 317.588Z" stroke="#42A7C5"/>
<path d="M582.907 214.564C595.11 214.564 605.002 204.681 605.002 192.488C605.002 180.296 595.11 170.412 582.907 170.412C570.705 170.412 560.812 180.296 560.812 192.488C560.812 204.681 570.705 214.564 582.907 214.564Z" fill="#42A7C5"/>
<path d="M582.907 214.564C595.11 214.564 605.002 204.681 605.002 192.488C605.002 180.296 595.11 170.412 582.907 170.412C570.705 170.412 560.812 180.296 560.812 192.488C560.812 204.681 570.705 214.564 582.907 214.564Z" stroke="#42A7C5"/>
<path d="M391.421 89.4662C389.369 91.516 387.739 93.9511 386.629 96.6294C385.519 99.3077 384.947 102.179 384.947 105.078C384.947 107.977 385.519 110.847 386.629 113.526C387.739 116.204 389.367 118.638 391.419 120.687L441.186 170.41H303.038C268.555 170.41 235.761 185.482 213.319 211.642L154.764 279.901C150.852 284.462 148.806 290.329 149.037 296.331C149.268 302.333 151.757 308.027 156.008 312.274L242.335 398.534C244.387 400.584 246.823 402.21 249.503 403.319C252.184 404.429 255.057 405 257.958 405C260.86 405 263.733 404.429 266.413 403.319C269.094 402.21 271.529 400.584 273.581 398.534L273.583 398.532C277.727 394.391 280.054 388.776 280.054 382.921C280.054 377.066 277.726 371.451 273.583 367.311L223.815 317.585H361.958C396.442 317.585 429.241 302.512 451.683 276.352L510.239 208.093C514.151 203.533 516.196 197.665 515.965 191.663C515.735 185.661 513.245 179.968 508.995 175.721L422.668 89.4662C418.524 85.3261 412.904 83.0001 407.044 83C401.184 82.9999 395.564 85.3262 391.421 89.4662ZM303.038 214.563H446.49L418.132 247.619C404.068 264.013 383.569 273.432 361.958 273.432H218.512L246.871 240.376C260.935 223.981 281.428 214.563 303.038 214.563Z" fill="#42A7C5"/>
<path d="M391.421 89.4662C389.369 91.516 387.739 93.9511 386.629 96.6294C385.519 99.3077 384.947 102.179 384.947 105.078C384.947 107.977 385.519 110.847 386.629 113.526C387.739 116.204 389.367 118.638 391.419 120.687L441.186 170.41H303.038C268.555 170.41 235.761 185.482 213.319 211.642L154.764 279.901C150.852 284.462 148.806 290.329 149.037 296.331C149.268 302.333 151.757 308.027 156.008 312.274L242.335 398.534C244.387 400.584 246.823 402.21 249.503 403.319C252.184 404.429 255.057 405 257.958 405C260.86 405 263.733 404.429 266.413 403.319C269.094 402.21 271.529 400.584 273.581 398.534L273.583 398.532C277.727 394.391 280.054 388.776 280.054 382.921C280.054 377.066 277.726 371.451 273.583 367.311L223.815 317.585H361.958C396.442 317.585 429.241 302.512 451.683 276.352L510.239 208.093C514.151 203.533 516.196 197.665 515.965 191.663C515.735 185.661 513.245 179.968 508.995 175.721L422.668 89.4662C418.524 85.3261 412.904 83.0001 407.044 83C401.184 82.9999 395.564 85.3262 391.421 89.4662ZM303.038 214.563H446.49L418.132 247.619C404.068 264.013 383.569 273.432 361.958 273.432H218.512L246.871 240.376C260.935 223.981 281.428 214.563 303.038 214.563Z" stroke="#42A7C5"/>
</svg>
