<svg width="5170" height="1038" viewBox="0 0 5170 1038" fill="none" xmlns="http://www.w3.org/2000/svg">
<path d="M2203.6 845.4C2162 845.4 2125.47 837.4 2094 821.4C2062.53 804.867 2038.27 781.933 2021.2 752.6C2004.13 723.267 1995.6 689.4 1995.6 651V466.2C1995.6 427.8 2004.13 393.933 2021.2 364.6C2038.27 335.267 2062.53 312.6 2094 296.6C2125.47 280.6 2162 272.6 2203.6 272.6C2244.67 272.6 2280.67 280.333 2311.6 295.8C2343.07 310.733 2367.33 332.333 2384.4 360.6C2402 388.333 2410.8 420.6 2410.8 457.4C2410.8 462.2 2407.6 465.133 2401.2 466.2L2307.6 471.8H2306C2300.67 471.8 2298 468.867 2298 463C2298 434.733 2289.2 412.067 2271.6 395C2254.53 377.933 2231.87 369.4 2203.6 369.4C2174.8 369.4 2151.6 377.933 2134 395C2116.93 412.067 2108.4 434.733 2108.4 463V655.8C2108.4 683.533 2116.93 705.933 2134 723C2151.6 740.067 2174.8 748.6 2203.6 748.6C2231.87 748.6 2254.53 740.067 2271.6 723C2289.2 705.933 2298 683.533 2298 655.8C2298 649.933 2301.2 647 2307.6 647L2401.2 651C2403.87 651 2406 651.8 2407.6 653.4C2409.73 655 2410.8 656.867 2410.8 659C2410.8 695.8 2402 728.333 2384.4 756.6C2367.33 784.867 2343.07 806.733 2311.6 822.2C2280.67 837.667 2244.67 845.4 2203.6 845.4ZM2647.97 421.4C2682.64 421.4 2713.58 427.533 2740.78 439.8C2767.98 451.533 2789.04 467.8 2803.98 488.6C2819.44 509.4 2827.18 532.6 2827.18 558.2V829.4C2827.18 832.067 2826.11 834.467 2823.98 836.6C2822.38 838.2 2820.24 839 2817.58 839H2723.98C2721.31 839 2718.91 838.2 2716.78 836.6C2715.18 834.467 2714.38 832.067 2714.38 829.4V803C2714.38 801.4 2713.84 800.333 2712.78 799.8C2711.71 799.267 2710.64 799.8 2709.58 801.4C2687.18 830.733 2651.18 845.4 2601.58 845.4C2559.98 845.4 2526.38 835.267 2500.78 815C2475.18 794.733 2462.38 764.867 2462.38 725.4C2462.38 684.333 2476.78 652.6 2505.58 630.2C2534.38 607.267 2575.44 595.8 2628.78 595.8H2710.38C2713.04 595.8 2714.38 594.467 2714.38 591.8V574.2C2714.38 556.6 2709.04 543 2698.38 533.4C2687.71 523.267 2671.71 518.2 2650.38 518.2C2633.84 518.2 2619.98 521.133 2608.78 527C2598.11 532.867 2591.18 541.133 2587.98 551.8C2586.38 557.667 2582.91 560.333 2577.58 559.8L2480.78 547C2474.38 545.933 2471.44 543.533 2471.98 539.8C2474.11 517.4 2482.91 497.133 2498.38 479C2514.38 460.867 2535.18 446.733 2560.78 436.6C2586.91 426.467 2615.98 421.4 2647.97 421.4ZM2631.98 761.4C2654.91 761.4 2674.38 755.267 2690.38 743C2706.38 730.733 2714.38 715 2714.38 695.8V667C2714.38 664.333 2713.04 663 2710.38 663H2652.78C2628.78 663 2609.84 667.533 2595.98 676.6C2582.64 685.667 2575.98 698.467 2575.98 715C2575.98 729.4 2581.04 740.867 2591.18 749.4C2601.31 757.4 2614.91 761.4 2631.98 761.4ZM3134.04 508.6C3134.04 511.267 3132.97 513.667 3130.84 515.8C3129.24 517.4 3127.1 518.2 3124.44 518.2H3047.64C3044.97 518.2 3043.64 519.533 3043.64 522.2V691.8C3043.64 709.4 3047.1 722.467 3054.04 731C3061.5 739.533 3073.24 743.8 3089.24 743.8H3115.64C3118.3 743.8 3120.44 744.867 3122.04 747C3124.17 748.6 3125.24 750.733 3125.24 753.4V829.4C3125.24 835.267 3122.04 838.733 3115.64 839.8C3093.24 840.867 3077.24 841.4 3067.64 841.4C3023.37 841.4 2990.3 834.2 2968.44 819.8C2946.57 804.867 2935.37 777.133 2934.84 736.6V522.2C2934.84 519.533 2933.5 518.2 2930.84 518.2H2885.24C2882.57 518.2 2880.17 517.4 2878.04 515.8C2876.44 513.667 2875.64 511.267 2875.64 508.6V437.4C2875.64 434.733 2876.44 432.6 2878.04 431C2880.17 428.867 2882.57 427.8 2885.24 427.8H2930.84C2933.5 427.8 2934.84 426.467 2934.84 423.8V328.6C2934.84 325.933 2935.64 323.8 2937.24 322.2C2939.37 320.067 2941.77 319 2944.44 319H3034.04C3036.7 319 3038.84 320.067 3040.44 322.2C3042.57 323.8 3043.64 325.933 3043.64 328.6V423.8C3043.64 426.467 3044.97 427.8 3047.64 427.8H3124.44C3127.1 427.8 3129.24 428.867 3130.84 431C3132.97 432.6 3134.04 434.733 3134.04 437.4V508.6ZM3560.48 591C3563.68 611.267 3564.74 633.933 3563.68 659C3563.14 665.4 3559.68 668.6 3553.28 668.6H3306.08C3302.88 668.6 3301.81 669.933 3302.88 672.6C3304.48 683.267 3307.41 693.933 3311.68 704.6C3325.54 734.467 3353.81 749.4 3396.48 749.4C3430.61 748.867 3457.54 735 3477.28 707.8C3479.41 704.6 3481.81 703 3484.48 703C3486.08 703 3487.94 704.067 3490.08 706.2L3547.68 763C3550.34 765.667 3551.68 768.067 3551.68 770.2C3551.68 771.267 3550.61 773.4 3548.48 776.6C3530.88 798.467 3508.21 815.533 3480.48 827.8C3452.74 839.533 3422.34 845.4 3389.28 845.4C3343.41 845.4 3304.48 835 3272.47 814.2C3241.01 793.4 3218.34 764.333 3204.48 727C3193.28 700.333 3187.68 665.4 3187.68 622.2C3187.68 592.867 3191.68 567 3199.68 544.6C3211.94 506.733 3233.28 476.6 3263.68 454.2C3294.61 431.8 3331.14 420.6 3373.28 420.6C3426.61 420.6 3469.28 436.067 3501.28 467C3533.81 497.933 3553.54 539.267 3560.48 591ZM3374.08 518.2C3340.48 518.2 3318.34 533.933 3307.68 565.4C3305.54 572.333 3303.68 580.867 3302.08 591C3302.08 593.667 3303.41 595 3306.08 595H3444.48C3447.68 595 3448.74 593.667 3447.68 591C3445.01 575.533 3443.68 568.067 3443.68 568.6C3438.88 552.6 3430.34 540.333 3418.08 531.8C3406.34 522.733 3391.68 518.2 3374.08 518.2ZM3847.59 421.4C3890.26 421.4 3924.66 434.467 3950.79 460.6C3976.93 486.733 3989.99 522.2 3989.99 567V829.4C3989.99 832.067 3988.93 834.467 3986.79 836.6C3985.19 838.2 3983.06 839 3980.39 839H3886.79C3884.13 839 3881.73 838.2 3879.59 836.6C3877.99 834.467 3877.19 832.067 3877.19 829.4V590.2C3877.19 568.867 3871.06 551.533 3858.79 538.2C3847.06 524.867 3831.33 518.2 3811.59 518.2C3791.86 518.2 3775.86 524.867 3763.59 538.2C3751.86 551.533 3745.99 568.867 3745.99 590.2V829.4C3745.99 832.067 3744.93 834.467 3742.79 836.6C3741.19 838.2 3739.06 839 3736.39 839H3642.79C3640.13 839 3637.73 838.2 3635.59 836.6C3633.99 834.467 3633.19 832.067 3633.19 829.4V437.4C3633.19 434.733 3633.99 432.6 3635.59 431C3637.73 428.867 3640.13 427.8 3642.79 427.8H3736.39C3739.06 427.8 3741.19 428.867 3742.79 431C3744.93 432.6 3745.99 434.733 3745.99 437.4V465.4C3745.99 467 3746.53 468.067 3747.59 468.6C3748.66 469.133 3749.46 468.867 3749.99 467.8C3771.86 436.867 3804.39 421.4 3847.59 421.4ZM4234.69 421.4C4269.36 421.4 4300.29 427.533 4327.49 439.8C4354.69 451.533 4375.76 467.8 4390.69 488.6C4406.16 509.4 4413.89 532.6 4413.89 558.2V829.4C4413.89 832.067 4412.83 834.467 4410.69 836.6C4409.09 838.2 4406.96 839 4404.29 839H4310.69C4308.03 839 4305.63 838.2 4303.49 836.6C4301.89 834.467 4301.09 832.067 4301.09 829.4V803C4301.09 801.4 4300.56 800.333 4299.49 799.8C4298.43 799.267 4297.36 799.8 4296.29 801.4C4273.89 830.733 4237.89 845.4 4188.29 845.4C4146.69 845.4 4113.09 835.267 4087.49 815C4061.89 794.733 4049.09 764.867 4049.09 725.4C4049.09 684.333 4063.49 652.6 4092.29 630.2C4121.09 607.267 4162.16 595.8 4215.49 595.8H4297.09C4299.76 595.8 4301.09 594.467 4301.09 591.8V574.2C4301.09 556.6 4295.76 543 4285.09 533.4C4274.43 523.267 4258.43 518.2 4237.09 518.2C4220.56 518.2 4206.69 521.133 4195.49 527C4184.83 532.867 4177.89 541.133 4174.69 551.8C4173.09 557.667 4169.63 560.333 4164.29 559.8L4067.49 547C4061.09 545.933 4058.16 543.533 4058.69 539.8C4060.83 517.4 4069.63 497.133 4085.09 479C4101.09 460.867 4121.89 446.733 4147.49 436.6C4173.63 426.467 4202.69 421.4 4234.69 421.4ZM4218.69 761.4C4241.63 761.4 4261.09 755.267 4277.09 743C4293.09 730.733 4301.09 715 4301.09 695.8V667C4301.09 664.333 4299.76 663 4297.09 663H4239.49C4215.49 663 4196.56 667.533 4182.69 676.6C4169.36 685.667 4162.69 698.467 4162.69 715C4162.69 729.4 4167.76 740.867 4177.89 749.4C4188.03 757.4 4201.63 761.4 4218.69 761.4ZM4698.15 422.2C4717.35 422.2 4732.55 425.933 4743.75 433.4C4748.02 435.533 4749.62 439.533 4748.55 445.4L4731.75 536.6C4731.22 543 4727.48 544.867 4720.55 542.2C4712.55 539.533 4703.22 538.2 4692.55 538.2C4688.28 538.2 4682.42 538.733 4674.95 539.8C4655.75 541.4 4639.48 548.6 4626.15 561.4C4612.82 573.667 4606.15 590.2 4606.15 611V829.4C4606.15 832.067 4605.08 834.467 4602.95 836.6C4601.35 838.2 4599.22 839 4596.55 839H4502.95C4500.28 839 4497.88 838.2 4495.75 836.6C4494.15 834.467 4493.35 832.067 4493.35 829.4V437.4C4493.35 434.733 4494.15 432.6 4495.75 431C4497.88 428.867 4500.28 427.8 4502.95 427.8H4596.55C4599.22 427.8 4601.35 428.867 4602.95 431C4605.08 432.6 4606.15 434.733 4606.15 437.4V467.8C4606.15 469.4 4606.68 470.467 4607.75 471C4608.82 471.533 4609.62 471.267 4610.15 470.2C4632.02 438.2 4661.35 422.2 4698.15 422.2ZM4805.79 998.2C4804.19 998.2 4802.86 997.133 4801.79 995C4800.73 993.4 4800.19 991.267 4800.19 988.6V915C4800.19 912.333 4800.99 909.933 4802.59 907.8C4804.73 906.2 4807.13 905.4 4809.79 905.4C4832.19 904.867 4849.79 903 4862.59 899.8C4875.93 896.6 4886.33 890.467 4893.79 881.4C4901.79 872.333 4907.93 859 4912.19 841.4C4912.73 840.333 4912.73 838.733 4912.19 836.6L4780.99 438.2C4780.46 437.133 4780.19 435.8 4780.19 434.2C4780.19 429.4 4783.13 427 4788.99 427H4888.99C4894.86 427 4898.59 429.667 4900.19 435L4967.39 694.2C4967.93 695.8 4968.73 696.6 4969.79 696.6C4970.86 696.6 4971.66 695.8 4972.19 694.2L5039.39 435C5040.99 429.667 5044.73 427 5050.59 427H5148.19C5151.39 427 5153.53 428.067 5154.59 430.2C5156.19 431.8 5156.46 434.467 5155.39 438.2L5016.99 854.2C5003.66 893.133 4990.06 922.2 4976.19 941.4C4962.33 961.133 4942.86 975.533 4917.79 984.6C4892.73 993.667 4857.26 998.2 4811.39 998.2H4805.79Z" fill="#F99C24"/>
<path d="M71.1656 755.559C110.469 755.559 142.331 723.725 142.331 684.456C142.331 645.187 110.469 613.353 71.1656 613.353C31.8619 613.353 0 645.187 0 684.456C0 723.725 31.8619 755.559 71.1656 755.559Z" fill="#F99C24"/>
<path d="M71.1656 755.559C110.469 755.559 142.331 723.725 142.331 684.456C142.331 645.187 110.469 613.353 71.1656 613.353C31.8619 613.353 0 645.187 0 684.456C0 723.725 31.8619 755.559 71.1656 755.559Z" stroke="#F99C24"/>
<path d="M1684.25 423.744C1723.56 423.744 1755.42 391.91 1755.42 352.641C1755.42 313.372 1723.56 281.538 1684.25 281.538C1644.95 281.538 1613.09 313.372 1613.09 352.641C1613.09 391.91 1644.95 423.744 1684.25 423.744Z" fill="#F99C24"/>
<path d="M1684.25 423.744C1723.56 423.744 1755.42 391.91 1755.42 352.641C1755.42 313.372 1723.56 281.538 1684.25 281.538C1644.95 281.538 1613.09 313.372 1613.09 352.641C1613.09 391.91 1644.95 423.744 1684.25 423.744Z" stroke="#F99C24"/>
<path d="M1067.48 20.8263C1060.88 27.4285 1055.63 35.2713 1052.05 43.8977C1048.47 52.5241 1046.63 61.7703 1046.63 71.1075C1046.63 80.4447 1048.47 89.6909 1052.05 98.3173C1055.63 106.944 1060.87 114.782 1067.48 121.384L1227.78 281.53H782.81C671.739 281.53 566.113 330.075 493.83 414.332L305.224 634.181C292.624 648.869 286.036 667.768 286.779 687.099C287.522 706.429 295.541 724.768 309.231 738.447L587.288 1016.27C593.896 1022.88 601.742 1028.11 610.376 1031.69C619.01 1035.26 628.263 1037.1 637.609 1037.1C646.954 1037.1 656.208 1035.26 664.842 1031.69C673.476 1028.11 681.321 1022.88 687.929 1016.27L687.936 1016.27C701.282 1002.93 708.78 984.845 708.78 965.987C708.779 947.13 701.281 929.045 687.935 915.711L527.634 755.551H972.588C1083.66 755.551 1189.3 707.006 1261.59 622.75L1450.19 402.9C1462.79 388.212 1469.38 369.313 1468.64 349.983C1467.89 330.652 1459.88 312.315 1446.18 298.637L1168.13 20.8263C1154.78 7.49185 1136.68 0.000177794 1117.81 0C1098.93 -0.000177788 1080.83 7.4921 1067.48 20.8263ZM782.81 423.738H1244.86L1153.52 530.205C1108.22 583.008 1042.19 613.343 972.588 613.343H510.555L601.897 506.876C647.197 454.073 713.203 423.738 782.81 423.738Z" fill="#F99C24"/>
<path d="M1067.48 20.8263C1060.88 27.4285 1055.63 35.2713 1052.05 43.8977C1048.47 52.5241 1046.63 61.7703 1046.63 71.1075C1046.63 80.4447 1048.47 89.6909 1052.05 98.3173C1055.63 106.944 1060.87 114.782 1067.48 121.384L1227.78 281.53H782.81C671.739 281.53 566.113 330.075 493.83 414.332L305.224 634.181C292.624 648.869 286.036 667.768 286.779 687.099C287.522 706.429 295.541 724.768 309.231 738.447L587.288 1016.27C593.896 1022.88 601.742 1028.11 610.376 1031.69C619.01 1035.26 628.263 1037.1 637.609 1037.1C646.954 1037.1 656.208 1035.26 664.842 1031.69C673.476 1028.11 681.321 1022.88 687.929 1016.27L687.936 1016.27C701.282 1002.93 708.78 984.845 708.78 965.987C708.779 947.13 701.281 929.045 687.935 915.711L527.634 755.551H972.588C1083.66 755.551 1189.3 707.006 1261.59 622.75L1450.19 402.9C1462.79 388.212 1469.38 369.313 1468.64 349.983C1467.89 330.652 1459.88 312.315 1446.18 298.637L1168.13 20.8263C1154.78 7.49185 1136.68 0.000177794 1117.81 0C1098.93 -0.000177788 1080.83 7.4921 1067.48 20.8263ZM782.81 423.738H1244.86L1153.52 530.205C1108.22 583.008 1042.19 613.343 972.588 613.343H510.555L601.897 506.876C647.197 454.073 713.203 423.738 782.81 423.738Z" stroke="#F99C24"/>
</svg>
