<svg width="1756" height="1038" viewBox="0 0 1756 1038" fill="none" xmlns="http://www.w3.org/2000/svg">
<path d="M71.1656 755.557C110.469 755.557 142.331 723.723 142.331 684.454C142.331 645.185 110.469 613.352 71.1656 613.352C31.8619 613.352 0 645.185 0 684.454C0 723.723 31.8619 755.557 71.1656 755.557Z" fill="#42A7C5"/>
<path d="M71.1656 755.557C110.469 755.557 142.331 723.723 142.331 684.454C142.331 645.185 110.469 613.352 71.1656 613.352C31.8619 613.352 0 645.185 0 684.454C0 723.723 31.8619 755.557 71.1656 755.557Z" stroke="#42A7C5"/>
<path d="M1684.25 423.745C1723.56 423.745 1755.42 391.911 1755.42 352.642C1755.42 313.373 1723.56 281.539 1684.25 281.539C1644.95 281.539 1613.09 313.373 1613.09 352.642C1613.09 391.911 1644.95 423.745 1684.25 423.745Z" fill="#42A7C5"/>
<path d="M1684.25 423.745C1723.56 423.745 1755.42 391.911 1755.42 352.642C1755.42 313.373 1723.56 281.539 1684.25 281.539C1644.95 281.539 1613.09 313.373 1613.09 352.642C1613.09 391.911 1644.95 423.745 1684.25 423.745Z" stroke="#42A7C5"/>
<path d="M1067.49 20.8263C1060.88 27.4285 1055.63 35.2713 1052.06 43.8977C1048.48 52.5241 1046.64 61.7703 1046.64 71.1075C1046.64 80.4447 1048.48 89.6909 1052.06 98.3173C1055.63 106.944 1060.87 114.782 1067.48 121.384L1227.78 281.53H782.814C671.743 281.53 566.117 330.075 493.834 414.332L305.228 634.181C292.628 648.869 286.04 667.768 286.783 687.099C287.526 706.429 295.545 724.768 309.235 738.447L587.292 1016.27C593.9 1022.88 601.745 1028.11 610.379 1031.69C619.013 1035.26 628.267 1037.1 637.613 1037.1C646.958 1037.1 656.212 1035.26 664.846 1031.69C673.48 1028.11 681.325 1022.88 687.933 1016.27L687.94 1016.27C701.286 1002.93 708.784 984.845 708.784 965.987C708.783 947.13 701.285 929.045 687.939 915.711L527.638 755.551H972.591C1083.66 755.551 1189.31 707.006 1261.59 622.75L1450.2 402.9C1462.8 388.212 1469.38 369.313 1468.64 349.983C1467.9 330.652 1459.88 312.315 1446.19 298.637L1168.13 20.8263C1154.79 7.49185 1136.69 0.000177794 1117.81 0C1098.94 -0.000177788 1080.84 7.4921 1067.49 20.8263ZM782.814 423.738H1244.87L1153.52 530.205C1108.22 583.008 1042.2 613.343 972.591 613.343H510.559L601.901 506.876C647.201 454.073 713.206 423.738 782.814 423.738Z" fill="#42A7C5"/>
<path d="M1067.49 20.8263C1060.88 27.4285 1055.63 35.2713 1052.06 43.8977C1048.48 52.5241 1046.64 61.7703 1046.64 71.1075C1046.64 80.4447 1048.48 89.6909 1052.06 98.3173C1055.63 106.944 1060.87 114.782 1067.48 121.384L1227.78 281.53H782.814C671.743 281.53 566.117 330.075 493.834 414.332L305.228 634.181C292.628 648.869 286.04 667.768 286.783 687.099C287.526 706.429 295.545 724.768 309.235 738.447L587.292 1016.27C593.9 1022.88 601.745 1028.11 610.379 1031.69C619.013 1035.26 628.267 1037.1 637.613 1037.1C646.958 1037.1 656.212 1035.26 664.846 1031.69C673.48 1028.11 681.325 1022.88 687.933 1016.27L687.94 1016.27C701.286 1002.93 708.784 984.845 708.784 965.987C708.783 947.13 701.285 929.045 687.939 915.711L527.638 755.551H972.591C1083.66 755.551 1189.31 707.006 1261.59 622.75L1450.2 402.9C1462.8 388.212 1469.38 369.313 1468.64 349.983C1467.9 330.652 1459.88 312.315 1446.19 298.637L1168.13 20.8263C1154.79 7.49185 1136.69 0.000177794 1117.81 0C1098.94 -0.000177788 1080.84 7.4921 1067.49 20.8263ZM782.814 423.738H1244.87L1153.52 530.205C1108.22 583.008 1042.2 613.343 972.591 613.343H510.559L601.901 506.876C647.201 454.073 713.206 423.738 782.814 423.738Z" stroke="#42A7C5"/>
</svg>
