<svg width="1287" height="515" viewBox="0 0 1287 515" fill="none" xmlns="http://www.w3.org/2000/svg">
<path d="M429 376C427.667 376 426.467 375.6 425.4 374.8C424.6 373.733 424.2 372.533 424.2 371.2V100.8C424.2 99.4667 424.6 98.4 425.4 97.6C426.467 96.5333 427.667 96 429 96H526.6C545.533 96 562.2 99.3333 576.6 106C591 112.667 602.067 122.267 609.8 134.8C617.8 147.067 621.8 161.467 621.8 178V294C621.8 310.533 617.8 325.067 609.8 337.6C602.067 349.867 591 359.333 576.6 366C562.2 372.667 545.533 376 526.6 376H429ZM470.6 334C470.6 335.333 471.267 336 472.6 336H528.6C542.733 336 553.933 331.6 562.2 322.8C570.733 313.733 575.133 301.733 575.4 286.8V185.6C575.4 170.4 571.133 158.4 562.6 149.6C554.067 140.533 542.6 136 528.2 136H472.6C471.267 136 470.6 136.667 470.6 138V334ZM757.866 379.2C736.799 379.2 718.666 373.867 703.466 363.2C688.532 352.533 677.999 337.733 671.866 318.8C667.332 304.4 665.066 289.2 665.066 273.2C665.066 256.133 667.199 240.933 671.466 227.6C677.599 208.933 688.266 194.4 703.466 184C718.666 173.6 736.932 168.4 758.266 168.4C778.532 168.4 795.999 173.6 810.666 184C825.599 194.4 836.132 208.8 842.266 227.2C847.066 240 849.466 255.2 849.466 272.8C849.466 289.6 847.199 304.8 842.666 318.4C836.532 337.333 825.999 352.267 811.066 363.2C796.132 373.867 778.399 379.2 757.866 379.2ZM757.866 339.2C767.732 339.2 776.132 336.4 783.066 330.8C790.266 325.2 795.466 317.333 798.666 307.2C801.332 298.4 802.666 287.2 802.666 273.6C802.666 259.2 801.332 248 798.666 240C795.732 229.867 790.666 222.133 783.466 216.8C776.266 211.2 767.466 208.4 757.066 208.4C747.199 208.4 738.666 211.2 731.466 216.8C724.266 222.133 719.066 229.867 715.866 240C713.199 249.333 711.866 260.533 711.866 273.6C711.866 286.667 713.199 297.867 715.866 307.2C718.799 317.333 723.866 325.2 731.066 330.8C738.532 336.4 747.466 339.2 757.866 339.2ZM982.531 379.2C961.998 379.2 944.265 374 929.331 363.6C914.398 352.933 903.998 338.667 898.131 320.8C893.865 308.8 891.731 292.8 891.731 272.8C891.731 253.6 893.865 237.867 898.131 225.6C903.731 208 913.998 194.133 928.931 184C944.131 173.6 961.998 168.4 982.531 168.4C1003.33 168.4 1021.46 173.6 1036.93 184C1052.4 194.4 1062.66 207.467 1067.73 223.2C1069.06 227.467 1070 231.733 1070.53 236V236.8C1070.53 239.467 1069.06 241.067 1066.13 241.6L1030.13 246.8H1029.33C1026.93 246.8 1025.33 245.467 1024.53 242.8C1024.53 241.467 1024.4 240.4 1024.13 239.6C1023.6 237.467 1023.06 235.6 1022.53 234C1020.13 226.533 1015.33 220.4 1008.13 215.6C1000.93 210.8 992.398 208.4 982.531 208.4C972.398 208.4 963.731 211.067 956.531 216.4C949.598 221.467 944.931 228.533 942.531 237.6C939.865 246.133 938.531 258 938.531 273.2C938.531 287.867 939.731 299.733 942.131 308.8C944.798 318.133 949.598 325.6 956.531 331.2C963.465 336.533 972.131 339.2 982.531 339.2C992.665 339.2 1001.33 336.667 1008.53 331.6C1016 326.267 1020.8 319.2 1022.93 310.4C1023.2 309.867 1023.33 309.2 1023.33 308.4C1023.6 308.133 1023.73 307.733 1023.73 307.2C1024.53 304 1026.4 302.667 1029.33 303.2L1065.33 308.8C1066.66 309.067 1067.73 309.733 1068.53 310.8C1069.6 311.6 1070 312.8 1069.73 314.4C1068.93 318.667 1068.26 321.733 1067.73 323.6C1062.66 340.667 1052.4 354.267 1036.93 364.4C1021.46 374.267 1003.33 379.2 982.531 379.2ZM1189.83 378.4C1173.03 378.4 1158.23 376 1145.43 371.2C1132.9 366.133 1123.16 359.333 1116.23 350.8C1109.3 342 1105.83 332.267 1105.83 321.6V318C1105.83 316.667 1106.23 315.6 1107.03 314.8C1108.1 313.733 1109.3 313.2 1110.63 313.2H1145.83C1147.16 313.2 1148.23 313.733 1149.03 314.8C1150.1 315.6 1150.63 316.667 1150.63 318V318.8C1150.63 325.467 1154.23 331.333 1161.43 336.4C1168.9 341.2 1178.23 343.6 1189.43 343.6C1200.1 343.6 1208.76 341.467 1215.43 337.2C1222.1 332.667 1225.43 327.067 1225.43 320.4C1225.43 314.267 1222.63 309.733 1217.03 306.8C1211.7 303.6 1202.9 300.267 1190.63 296.8L1175.43 292C1161.83 288 1150.36 283.733 1141.03 279.2C1131.7 274.667 1123.83 268.533 1117.43 260.8C1111.03 252.8 1107.83 242.667 1107.83 230.4C1107.83 211.733 1115.16 196.933 1129.83 186C1144.5 174.8 1163.83 169.2 1187.83 169.2C1204.1 169.2 1218.36 171.867 1230.63 177.2C1242.9 182.267 1252.36 189.467 1259.03 198.8C1265.7 207.867 1269.03 218.267 1269.03 230C1269.03 231.333 1268.5 232.533 1267.43 233.6C1266.63 234.4 1265.56 234.8 1264.23 234.8H1230.23C1228.9 234.8 1227.7 234.4 1226.63 233.6C1225.83 232.533 1225.43 231.333 1225.43 230C1225.43 223.067 1221.96 217.333 1215.03 212.8C1208.36 208 1199.16 205.6 1187.43 205.6C1177.03 205.6 1168.5 207.6 1161.83 211.6C1155.43 215.333 1152.23 220.667 1152.23 227.6C1152.23 234 1155.3 238.933 1161.43 242.4C1167.83 245.6 1178.36 249.2 1193.03 253.2L1201.83 255.6C1215.96 259.867 1227.83 264.267 1237.43 268.8C1247.03 273.067 1255.16 279.2 1261.83 287.2C1268.5 294.933 1271.83 305.067 1271.83 317.6C1271.83 336.533 1264.36 351.467 1249.43 362.4C1234.5 373.067 1214.63 378.4 1189.83 378.4Z" fill="#F99C24"/>
<rect x="104.665" y="96.3394" width="85.6352" height="418.661" rx="20" fill="#F99C24"/>
<rect width="85.6352" height="418.661" rx="20" fill="#F99C24"/>
<rect x="209.33" width="85.6352" height="418.661" rx="20" fill="#F99C24"/>
</svg>
