<svg width="250" height="657" viewBox="0 0 250 657" fill="none" xmlns="http://www.w3.org/2000/svg">
<rect width="54" height="657" rx="10" transform="matrix(1 0 0 -1 0 657)" fill="#71BED4"/>
<rect width="188" height="266" rx="20" transform="matrix(1 0 0 -1 62 266)" fill="#2F849E"/>
<path d="M123.832 178.84H129.272L114.68 210.84H127.416V197.848H132.92V210.84H136.952V215.832H132.92V223H127.416V215.832H108.28V211.8L123.832 178.84ZM168.312 191.064V210.776C168.312 218.904 162.296 223.512 155.64 223.512C148.984 223.512 142.968 218.904 142.968 210.712V191.128C142.968 182.936 148.984 178.328 155.64 178.328C162.296 178.328 168.312 182.936 168.312 191.064ZM162.808 191.064C162.808 186.328 159.608 183.32 155.64 183.32C151.608 183.32 148.408 186.328 148.408 191.064V210.776C148.408 215.512 151.608 218.52 155.64 218.52C159.608 218.52 162.808 215.512 162.808 210.776V191.064ZM189.112 178.84H194.552L179.96 210.84H192.696V197.848H198.2V210.84H202.232V215.832H198.2V223H192.696V215.832H173.56V211.8L189.112 178.84Z" fill="#71BED4"/>
<path d="M140.925 45.2803C147.528 34.2798 163.472 34.2798 170.075 45.2803L212.543 116.023C219.344 127.354 211.183 141.773 197.967 141.773H113.033C99.8173 141.773 91.6556 127.354 98.4575 116.023L140.925 45.2803Z" fill="#42A7C5"/>
<circle cx="155.501" cy="114.834" r="11.0287" fill="#71BED4"/>
<rect x="150.258" y="51.374" width="10.8479" height="45.9227" rx="5.42394" fill="#71BED4"/>
</svg>
