<svg width="388" height="387" viewBox="0 0 388 387" fill="none" xmlns="http://www.w3.org/2000/svg">
<path d="M0 54.362C0 45.3444 6.33865 37.5689 15.1713 35.7518L166.123 4.69654C177.909 2.27186 188.952 11.2742 188.952 23.3068V334.171C188.952 343.277 182.491 351.103 173.55 352.827L22.5982 381.942C10.8775 384.202 0 375.222 0 363.285L0 54.362Z" fill="#42889D"/>
<path d="M387.999 57.6863C387.999 48.7988 381.838 41.0987 373.166 39.1491L222.215 5.20907C210.337 2.5384 199.047 11.5717 199.047 23.7463V333.897C199.047 343.004 205.509 350.83 214.451 352.553L365.403 381.645C377.123 383.904 387.999 374.924 387.999 362.989V57.6863Z" fill="#42A7C5"/>
</svg>
